%TF.GenerationSoftware,KiCad,Pcbnew,9.0.6*%
%TF.CreationDate,2026-04-15T12:34:38+01:00*%
%TF.ProjectId,HDD Synth prototype MK3,48444420-5379-46e7-9468-2070726f746f,MKIII*%
%TF.SameCoordinates,Original*%
%TF.FileFunction,Soldermask,Top*%
%TF.FilePolarity,Negative*%
%FSLAX46Y46*%
G04 Gerber Fmt 4.6, Leading zero omitted, Abs format (unit mm)*
G04 Created by KiCad (PCBNEW 9.0.6) date 2026-04-15 12:34:38*
%MOMM*%
%LPD*%
G01*
G04 APERTURE LIST*
G04 Aperture macros list*
%AMRoundRect*
0 Rectangle with rounded corners*
0 $1 Rounding radius*
0 $2 $3 $4 $5 $6 $7 $8 $9 X,Y pos of 4 corners*
0 Add a 4 corners polygon primitive as box body*
4,1,4,$2,$3,$4,$5,$6,$7,$8,$9,$2,$3,0*
0 Add four circle primitives for the rounded corners*
1,1,$1+$1,$2,$3*
1,1,$1+$1,$4,$5*
1,1,$1+$1,$6,$7*
1,1,$1+$1,$8,$9*
0 Add four rect primitives between the rounded corners*
20,1,$1+$1,$2,$3,$4,$5,0*
20,1,$1+$1,$4,$5,$6,$7,0*
20,1,$1+$1,$6,$7,$8,$9,0*
20,1,$1+$1,$8,$9,$2,$3,0*%
%AMFreePoly0*
4,1,37,0.800000,0.796148,0.878414,0.796148,1.032228,0.765552,1.177117,0.705537,1.307515,0.618408,1.418408,0.507515,1.505537,0.377117,1.565552,0.232228,1.596148,0.078414,1.596148,-0.078414,1.565552,-0.232228,1.505537,-0.377117,1.418408,-0.507515,1.307515,-0.618408,1.177117,-0.705537,1.032228,-0.765552,0.878414,-0.796148,0.800000,-0.796148,0.800000,-0.800000,-1.400000,-0.800000,
-1.403843,-0.796157,-1.439018,-0.796157,-1.511114,-0.766294,-1.566294,-0.711114,-1.596157,-0.639018,-1.596157,-0.603843,-1.600000,-0.600000,-1.600000,0.600000,-1.596157,0.603843,-1.596157,0.639018,-1.566294,0.711114,-1.511114,0.766294,-1.439018,0.796157,-1.403843,0.796157,-1.400000,0.800000,0.800000,0.800000,0.800000,0.796148,0.800000,0.796148,$1*%
%AMFreePoly1*
4,1,37,0.000000,0.796148,0.078414,0.796148,0.232228,0.765552,0.377117,0.705537,0.507515,0.618408,0.618408,0.507515,0.705537,0.377117,0.765552,0.232228,0.796148,0.078414,0.796148,-0.078414,0.765552,-0.232228,0.705537,-0.377117,0.618408,-0.507515,0.507515,-0.618408,0.377117,-0.705537,0.232228,-0.765552,0.078414,-0.796148,0.000000,-0.796148,0.000000,-0.800000,-0.600000,-0.800000,
-0.603843,-0.796157,-0.639018,-0.796157,-0.711114,-0.766294,-0.766294,-0.711114,-0.796157,-0.639018,-0.796157,-0.603843,-0.800000,-0.600000,-0.800000,0.600000,-0.796157,0.603843,-0.796157,0.639018,-0.766294,0.711114,-0.711114,0.766294,-0.639018,0.796157,-0.603843,0.796157,-0.600000,0.800000,0.000000,0.800000,0.000000,0.796148,0.000000,0.796148,$1*%
%AMFreePoly2*
4,1,37,0.603843,0.796157,0.639018,0.796157,0.711114,0.766294,0.766294,0.711114,0.796157,0.639018,0.796157,0.603843,0.800000,0.600000,0.800000,-0.600000,0.796157,-0.603843,0.796157,-0.639018,0.766294,-0.711114,0.711114,-0.766294,0.639018,-0.796157,0.603843,-0.796157,0.600000,-0.800000,0.000000,-0.800000,0.000000,-0.796148,-0.078414,-0.796148,-0.232228,-0.765552,-0.377117,-0.705537,
-0.507515,-0.618408,-0.618408,-0.507515,-0.705537,-0.377117,-0.765552,-0.232228,-0.796148,-0.078414,-0.796148,0.078414,-0.765552,0.232228,-0.705537,0.377117,-0.618408,0.507515,-0.507515,0.618408,-0.377117,0.705537,-0.232228,0.765552,-0.078414,0.796148,0.000000,0.796148,0.000000,0.800000,0.600000,0.800000,0.603843,0.796157,0.603843,0.796157,$1*%
%AMFreePoly3*
4,1,37,1.403843,0.796157,1.439018,0.796157,1.511114,0.766294,1.566294,0.711114,1.596157,0.639018,1.596157,0.603843,1.600000,0.600000,1.600000,-0.600000,1.596157,-0.603843,1.596157,-0.639018,1.566294,-0.711114,1.511114,-0.766294,1.439018,-0.796157,1.403843,-0.796157,1.400000,-0.800000,-0.800000,-0.800000,-0.800000,-0.796148,-0.878414,-0.796148,-1.032228,-0.765552,-1.177117,-0.705537,
-1.307515,-0.618408,-1.418408,-0.507515,-1.505537,-0.377117,-1.565552,-0.232228,-1.596148,-0.078414,-1.596148,0.078414,-1.565552,0.232228,-1.505537,0.377117,-1.418408,0.507515,-1.307515,0.618408,-1.177117,0.705537,-1.032228,0.765552,-0.878414,0.796148,-0.800000,0.796148,-0.800000,0.800000,1.400000,0.800000,1.403843,0.796157,1.403843,0.796157,$1*%
G04 Aperture macros list end*
%ADD10C,0.150000*%
%ADD11C,0.100000*%
%ADD12RoundRect,0.225000X0.250000X-0.225000X0.250000X0.225000X-0.250000X0.225000X-0.250000X-0.225000X0*%
%ADD13C,1.700000*%
%ADD14R,1.700000X1.700000*%
%ADD15R,1.200000X0.700000*%
%ADD16R,0.800000X1.000000*%
%ADD17R,1.200000X1.000000*%
%ADD18R,2.800000X1.000000*%
%ADD19R,1.900000X1.300000*%
%ADD20RoundRect,0.800000X-0.800000X-0.000010X0.800000X-0.000010X0.800000X0.000010X-0.800000X0.000010X0*%
%ADD21C,1.600000*%
%ADD22FreePoly0,0.000000*%
%ADD23FreePoly1,0.000000*%
%ADD24FreePoly2,0.000000*%
%ADD25FreePoly3,0.000000*%
%ADD26RoundRect,0.200000X-0.600000X-0.600000X0.600000X-0.600000X0.600000X0.600000X-0.600000X0.600000X0*%
%ADD27C,2.200000*%
%ADD28C,1.850000*%
%ADD29C,3.200000*%
%ADD30C,2.154000*%
%ADD31C,1.704000*%
%ADD32RoundRect,0.725000X-0.975000X-0.725000X0.975000X-0.725000X0.975000X0.725000X-0.975000X0.725000X0*%
%ADD33C,1.524000*%
%ADD34RoundRect,0.250000X0.512000X-0.512000X0.512000X0.512000X-0.512000X0.512000X-0.512000X-0.512000X0*%
%ADD35R,1.230000X1.230000*%
%ADD36RoundRect,0.062500X0.062500X0.350000X-0.062500X0.350000X-0.062500X-0.350000X0.062500X-0.350000X0*%
%ADD37RoundRect,0.062500X0.350000X0.062500X-0.350000X0.062500X-0.350000X-0.062500X0.350000X-0.062500X0*%
%ADD38R,0.800000X0.500000*%
%ADD39R,0.800000X0.400000*%
%ADD40RoundRect,0.250000X0.650000X-0.325000X0.650000X0.325000X-0.650000X0.325000X-0.650000X-0.325000X0*%
%ADD41RoundRect,0.200000X-0.275000X0.200000X-0.275000X-0.200000X0.275000X-0.200000X0.275000X0.200000X0*%
%ADD42R,0.640000X2.000000*%
%ADD43RoundRect,0.250000X1.000000X0.650000X-1.000000X0.650000X-1.000000X-0.650000X1.000000X-0.650000X0*%
%ADD44RoundRect,0.250000X-0.650000X1.000000X-0.650000X-1.000000X0.650000X-1.000000X0.650000X1.000000X0*%
%ADD45RoundRect,0.218750X0.218750X0.381250X-0.218750X0.381250X-0.218750X-0.381250X0.218750X-0.381250X0*%
%ADD46R,1.800000X1.070000*%
%ADD47O,1.800000X1.070000*%
%ADD48RoundRect,0.225000X-0.250000X0.225000X-0.250000X-0.225000X0.250000X-0.225000X0.250000X0.225000X0*%
%ADD49RoundRect,0.200000X0.275000X-0.200000X0.275000X0.200000X-0.275000X0.200000X-0.275000X-0.200000X0*%
%ADD50RoundRect,0.200000X0.200000X0.275000X-0.200000X0.275000X-0.200000X-0.275000X0.200000X-0.275000X0*%
%ADD51RoundRect,0.100000X0.100000X-0.637500X0.100000X0.637500X-0.100000X0.637500X-0.100000X-0.637500X0*%
%ADD52RoundRect,0.250000X-0.550000X-0.550000X0.550000X-0.550000X0.550000X0.550000X-0.550000X0.550000X0*%
%ADD53R,1.780000X7.620000*%
%ADD54RoundRect,0.250000X0.312500X0.625000X-0.312500X0.625000X-0.312500X-0.625000X0.312500X-0.625000X0*%
%ADD55C,0.800000*%
%ADD56C,6.400000*%
%ADD57RoundRect,0.200000X-0.200000X-0.275000X0.200000X-0.275000X0.200000X0.275000X-0.200000X0.275000X0*%
%ADD58RoundRect,0.250001X-0.949999X0.949999X-0.949999X-0.949999X0.949999X-0.949999X0.949999X0.949999X0*%
%ADD59C,2.400000*%
%ADD60RoundRect,0.225000X-0.225000X-0.250000X0.225000X-0.250000X0.225000X0.250000X-0.225000X0.250000X0*%
%ADD61RoundRect,0.250001X-0.949999X-0.949999X0.949999X-0.949999X0.949999X0.949999X-0.949999X0.949999X0*%
%ADD62RoundRect,0.150000X0.150000X-0.587500X0.150000X0.587500X-0.150000X0.587500X-0.150000X-0.587500X0*%
%ADD63RoundRect,0.250000X-0.650000X0.325000X-0.650000X-0.325000X0.650000X-0.325000X0.650000X0.325000X0*%
G04 APERTURE END LIST*
D10*
X100784819Y-93892142D02*
X100784819Y-93701666D01*
X100784819Y-93701666D02*
X100737200Y-93606428D01*
X100737200Y-93606428D02*
X100689580Y-93558809D01*
X100689580Y-93558809D02*
X100546723Y-93463571D01*
X100546723Y-93463571D02*
X100356247Y-93415952D01*
X100356247Y-93415952D02*
X99975295Y-93415952D01*
X99975295Y-93415952D02*
X99880057Y-93463571D01*
X99880057Y-93463571D02*
X99832438Y-93511190D01*
X99832438Y-93511190D02*
X99784819Y-93606428D01*
X99784819Y-93606428D02*
X99784819Y-93796904D01*
X99784819Y-93796904D02*
X99832438Y-93892142D01*
X99832438Y-93892142D02*
X99880057Y-93939761D01*
X99880057Y-93939761D02*
X99975295Y-93987380D01*
X99975295Y-93987380D02*
X100213390Y-93987380D01*
X100213390Y-93987380D02*
X100308628Y-93939761D01*
X100308628Y-93939761D02*
X100356247Y-93892142D01*
X100356247Y-93892142D02*
X100403866Y-93796904D01*
X100403866Y-93796904D02*
X100403866Y-93606428D01*
X100403866Y-93606428D02*
X100356247Y-93511190D01*
X100356247Y-93511190D02*
X100308628Y-93463571D01*
X100308628Y-93463571D02*
X100213390Y-93415952D01*
X99784819Y-93082618D02*
X99784819Y-92415952D01*
X99784819Y-92415952D02*
X100784819Y-92844523D01*
X100689580Y-92034999D02*
X100737200Y-91987380D01*
X100737200Y-91987380D02*
X100784819Y-92034999D01*
X100784819Y-92034999D02*
X100737200Y-92082618D01*
X100737200Y-92082618D02*
X100689580Y-92034999D01*
X100689580Y-92034999D02*
X100784819Y-92034999D01*
X99784819Y-91654047D02*
X99784819Y-90987381D01*
X99784819Y-90987381D02*
X100784819Y-91415952D01*
X100784819Y-90558809D02*
X100784819Y-90368333D01*
X100784819Y-90368333D02*
X100737200Y-90273095D01*
X100737200Y-90273095D02*
X100689580Y-90225476D01*
X100689580Y-90225476D02*
X100546723Y-90130238D01*
X100546723Y-90130238D02*
X100356247Y-90082619D01*
X100356247Y-90082619D02*
X99975295Y-90082619D01*
X99975295Y-90082619D02*
X99880057Y-90130238D01*
X99880057Y-90130238D02*
X99832438Y-90177857D01*
X99832438Y-90177857D02*
X99784819Y-90273095D01*
X99784819Y-90273095D02*
X99784819Y-90463571D01*
X99784819Y-90463571D02*
X99832438Y-90558809D01*
X99832438Y-90558809D02*
X99880057Y-90606428D01*
X99880057Y-90606428D02*
X99975295Y-90654047D01*
X99975295Y-90654047D02*
X100213390Y-90654047D01*
X100213390Y-90654047D02*
X100308628Y-90606428D01*
X100308628Y-90606428D02*
X100356247Y-90558809D01*
X100356247Y-90558809D02*
X100403866Y-90463571D01*
X100403866Y-90463571D02*
X100403866Y-90273095D01*
X100403866Y-90273095D02*
X100356247Y-90177857D01*
X100356247Y-90177857D02*
X100308628Y-90130238D01*
X100308628Y-90130238D02*
X100213390Y-90082619D01*
D11*
X125110000Y-140930000D02*
X100893580Y-140930000D01*
X100893580Y-43140000D02*
X112410000Y-43140000D01*
X101480000Y-140930000D02*
X101480000Y-43140000D01*
X101480000Y-140930000D02*
X100893579Y-139803496D01*
X101480000Y-140930000D02*
X102066421Y-139803496D01*
X101480000Y-43140000D02*
X102066421Y-44266504D01*
X101480000Y-43140000D02*
X100893579Y-44266504D01*
D10*
X180303390Y-120964404D02*
X180255771Y-121059642D01*
X180255771Y-121059642D02*
X180208152Y-121107261D01*
X180208152Y-121107261D02*
X180112914Y-121154880D01*
X180112914Y-121154880D02*
X180065295Y-121154880D01*
X180065295Y-121154880D02*
X179970057Y-121107261D01*
X179970057Y-121107261D02*
X179922438Y-121059642D01*
X179922438Y-121059642D02*
X179874819Y-120964404D01*
X179874819Y-120964404D02*
X179874819Y-120773928D01*
X179874819Y-120773928D02*
X179922438Y-120678690D01*
X179922438Y-120678690D02*
X179970057Y-120631071D01*
X179970057Y-120631071D02*
X180065295Y-120583452D01*
X180065295Y-120583452D02*
X180112914Y-120583452D01*
X180112914Y-120583452D02*
X180208152Y-120631071D01*
X180208152Y-120631071D02*
X180255771Y-120678690D01*
X180255771Y-120678690D02*
X180303390Y-120773928D01*
X180303390Y-120773928D02*
X180303390Y-120964404D01*
X180303390Y-120964404D02*
X180351009Y-121059642D01*
X180351009Y-121059642D02*
X180398628Y-121107261D01*
X180398628Y-121107261D02*
X180493866Y-121154880D01*
X180493866Y-121154880D02*
X180684342Y-121154880D01*
X180684342Y-121154880D02*
X180779580Y-121107261D01*
X180779580Y-121107261D02*
X180827200Y-121059642D01*
X180827200Y-121059642D02*
X180874819Y-120964404D01*
X180874819Y-120964404D02*
X180874819Y-120773928D01*
X180874819Y-120773928D02*
X180827200Y-120678690D01*
X180827200Y-120678690D02*
X180779580Y-120631071D01*
X180779580Y-120631071D02*
X180684342Y-120583452D01*
X180684342Y-120583452D02*
X180493866Y-120583452D01*
X180493866Y-120583452D02*
X180398628Y-120631071D01*
X180398628Y-120631071D02*
X180351009Y-120678690D01*
X180351009Y-120678690D02*
X180303390Y-120773928D01*
X180874819Y-119631071D02*
X180874819Y-120202499D01*
X180874819Y-119916785D02*
X179874819Y-119916785D01*
X179874819Y-119916785D02*
X180017676Y-120012023D01*
X180017676Y-120012023D02*
X180112914Y-120107261D01*
X180112914Y-120107261D02*
X180160533Y-120202499D01*
X180779580Y-119202499D02*
X180827200Y-119154880D01*
X180827200Y-119154880D02*
X180874819Y-119202499D01*
X180874819Y-119202499D02*
X180827200Y-119250118D01*
X180827200Y-119250118D02*
X180779580Y-119202499D01*
X180779580Y-119202499D02*
X180874819Y-119202499D01*
X179970057Y-118773928D02*
X179922438Y-118726309D01*
X179922438Y-118726309D02*
X179874819Y-118631071D01*
X179874819Y-118631071D02*
X179874819Y-118392976D01*
X179874819Y-118392976D02*
X179922438Y-118297738D01*
X179922438Y-118297738D02*
X179970057Y-118250119D01*
X179970057Y-118250119D02*
X180065295Y-118202500D01*
X180065295Y-118202500D02*
X180160533Y-118202500D01*
X180160533Y-118202500D02*
X180303390Y-118250119D01*
X180303390Y-118250119D02*
X180874819Y-118821547D01*
X180874819Y-118821547D02*
X180874819Y-118202500D01*
X180303390Y-117631071D02*
X180255771Y-117726309D01*
X180255771Y-117726309D02*
X180208152Y-117773928D01*
X180208152Y-117773928D02*
X180112914Y-117821547D01*
X180112914Y-117821547D02*
X180065295Y-117821547D01*
X180065295Y-117821547D02*
X179970057Y-117773928D01*
X179970057Y-117773928D02*
X179922438Y-117726309D01*
X179922438Y-117726309D02*
X179874819Y-117631071D01*
X179874819Y-117631071D02*
X179874819Y-117440595D01*
X179874819Y-117440595D02*
X179922438Y-117345357D01*
X179922438Y-117345357D02*
X179970057Y-117297738D01*
X179970057Y-117297738D02*
X180065295Y-117250119D01*
X180065295Y-117250119D02*
X180112914Y-117250119D01*
X180112914Y-117250119D02*
X180208152Y-117297738D01*
X180208152Y-117297738D02*
X180255771Y-117345357D01*
X180255771Y-117345357D02*
X180303390Y-117440595D01*
X180303390Y-117440595D02*
X180303390Y-117631071D01*
X180303390Y-117631071D02*
X180351009Y-117726309D01*
X180351009Y-117726309D02*
X180398628Y-117773928D01*
X180398628Y-117773928D02*
X180493866Y-117821547D01*
X180493866Y-117821547D02*
X180684342Y-117821547D01*
X180684342Y-117821547D02*
X180779580Y-117773928D01*
X180779580Y-117773928D02*
X180827200Y-117726309D01*
X180827200Y-117726309D02*
X180874819Y-117631071D01*
X180874819Y-117631071D02*
X180874819Y-117440595D01*
X180874819Y-117440595D02*
X180827200Y-117345357D01*
X180827200Y-117345357D02*
X180779580Y-117297738D01*
X180779580Y-117297738D02*
X180684342Y-117250119D01*
X180684342Y-117250119D02*
X180493866Y-117250119D01*
X180493866Y-117250119D02*
X180398628Y-117297738D01*
X180398628Y-117297738D02*
X180351009Y-117345357D01*
X180351009Y-117345357D02*
X180303390Y-117440595D01*
D11*
X187420000Y-159842500D02*
X180983580Y-159842500D01*
X180983580Y-78562500D02*
X187419999Y-78562500D01*
X181570000Y-159842500D02*
X181570000Y-78562500D01*
X181570000Y-159842500D02*
X180983579Y-158715996D01*
X181570000Y-159842500D02*
X182156421Y-158715996D01*
X181570000Y-78562500D02*
X182156421Y-79689004D01*
X181570000Y-78562500D02*
X180983579Y-79689004D01*
D10*
X166932857Y-34824819D02*
X166361429Y-34824819D01*
X166647143Y-34824819D02*
X166647143Y-33824819D01*
X166647143Y-33824819D02*
X166551905Y-33967676D01*
X166551905Y-33967676D02*
X166456667Y-34062914D01*
X166456667Y-34062914D02*
X166361429Y-34110533D01*
X167885238Y-34824819D02*
X167313810Y-34824819D01*
X167599524Y-34824819D02*
X167599524Y-33824819D01*
X167599524Y-33824819D02*
X167504286Y-33967676D01*
X167504286Y-33967676D02*
X167409048Y-34062914D01*
X167409048Y-34062914D02*
X167313810Y-34110533D01*
X168361429Y-34824819D02*
X168551905Y-34824819D01*
X168551905Y-34824819D02*
X168647143Y-34777200D01*
X168647143Y-34777200D02*
X168694762Y-34729580D01*
X168694762Y-34729580D02*
X168790000Y-34586723D01*
X168790000Y-34586723D02*
X168837619Y-34396247D01*
X168837619Y-34396247D02*
X168837619Y-34015295D01*
X168837619Y-34015295D02*
X168790000Y-33920057D01*
X168790000Y-33920057D02*
X168742381Y-33872438D01*
X168742381Y-33872438D02*
X168647143Y-33824819D01*
X168647143Y-33824819D02*
X168456667Y-33824819D01*
X168456667Y-33824819D02*
X168361429Y-33872438D01*
X168361429Y-33872438D02*
X168313810Y-33920057D01*
X168313810Y-33920057D02*
X168266191Y-34015295D01*
X168266191Y-34015295D02*
X168266191Y-34253390D01*
X168266191Y-34253390D02*
X168313810Y-34348628D01*
X168313810Y-34348628D02*
X168361429Y-34396247D01*
X168361429Y-34396247D02*
X168456667Y-34443866D01*
X168456667Y-34443866D02*
X168647143Y-34443866D01*
X168647143Y-34443866D02*
X168742381Y-34396247D01*
X168742381Y-34396247D02*
X168790000Y-34348628D01*
X168790000Y-34348628D02*
X168837619Y-34253390D01*
X169266191Y-34729580D02*
X169313810Y-34777200D01*
X169313810Y-34777200D02*
X169266191Y-34824819D01*
X169266191Y-34824819D02*
X169218572Y-34777200D01*
X169218572Y-34777200D02*
X169266191Y-34729580D01*
X169266191Y-34729580D02*
X169266191Y-34824819D01*
X169647143Y-33824819D02*
X170266190Y-33824819D01*
X170266190Y-33824819D02*
X169932857Y-34205771D01*
X169932857Y-34205771D02*
X170075714Y-34205771D01*
X170075714Y-34205771D02*
X170170952Y-34253390D01*
X170170952Y-34253390D02*
X170218571Y-34301009D01*
X170218571Y-34301009D02*
X170266190Y-34396247D01*
X170266190Y-34396247D02*
X170266190Y-34634342D01*
X170266190Y-34634342D02*
X170218571Y-34729580D01*
X170218571Y-34729580D02*
X170170952Y-34777200D01*
X170170952Y-34777200D02*
X170075714Y-34824819D01*
X170075714Y-34824819D02*
X169790000Y-34824819D01*
X169790000Y-34824819D02*
X169694762Y-34777200D01*
X169694762Y-34777200D02*
X169647143Y-34729580D01*
X170837619Y-34253390D02*
X170742381Y-34205771D01*
X170742381Y-34205771D02*
X170694762Y-34158152D01*
X170694762Y-34158152D02*
X170647143Y-34062914D01*
X170647143Y-34062914D02*
X170647143Y-34015295D01*
X170647143Y-34015295D02*
X170694762Y-33920057D01*
X170694762Y-33920057D02*
X170742381Y-33872438D01*
X170742381Y-33872438D02*
X170837619Y-33824819D01*
X170837619Y-33824819D02*
X171028095Y-33824819D01*
X171028095Y-33824819D02*
X171123333Y-33872438D01*
X171123333Y-33872438D02*
X171170952Y-33920057D01*
X171170952Y-33920057D02*
X171218571Y-34015295D01*
X171218571Y-34015295D02*
X171218571Y-34062914D01*
X171218571Y-34062914D02*
X171170952Y-34158152D01*
X171170952Y-34158152D02*
X171123333Y-34205771D01*
X171123333Y-34205771D02*
X171028095Y-34253390D01*
X171028095Y-34253390D02*
X170837619Y-34253390D01*
X170837619Y-34253390D02*
X170742381Y-34301009D01*
X170742381Y-34301009D02*
X170694762Y-34348628D01*
X170694762Y-34348628D02*
X170647143Y-34443866D01*
X170647143Y-34443866D02*
X170647143Y-34634342D01*
X170647143Y-34634342D02*
X170694762Y-34729580D01*
X170694762Y-34729580D02*
X170742381Y-34777200D01*
X170742381Y-34777200D02*
X170837619Y-34824819D01*
X170837619Y-34824819D02*
X171028095Y-34824819D01*
X171028095Y-34824819D02*
X171123333Y-34777200D01*
X171123333Y-34777200D02*
X171170952Y-34729580D01*
X171170952Y-34729580D02*
X171218571Y-34634342D01*
X171218571Y-34634342D02*
X171218571Y-34443866D01*
X171218571Y-34443866D02*
X171170952Y-34348628D01*
X171170952Y-34348628D02*
X171123333Y-34301009D01*
X171123333Y-34301009D02*
X171028095Y-34253390D01*
D11*
X228480000Y-43759548D02*
X228480000Y-34933580D01*
X109100000Y-34933580D02*
X109100000Y-47577059D01*
X228480000Y-35520000D02*
X109100000Y-35520000D01*
X228480000Y-35520000D02*
X227353496Y-36106421D01*
X228480000Y-35520000D02*
X227353496Y-34933579D01*
X109100000Y-35520000D02*
X110226504Y-34933579D01*
X109100000Y-35520000D02*
X110226504Y-36106421D01*
%TO.C,J3*%
X124500000Y-132990000D02*
X206000000Y-132990000D01*
X206000000Y-140490000D01*
X124500000Y-140490000D01*
X124500000Y-132990000D01*
G36*
X124500000Y-132990000D02*
G01*
X206000000Y-132990000D01*
X206000000Y-140490000D01*
X124500000Y-140490000D01*
X124500000Y-132990000D01*
G37*
%TD*%
D12*
%TO.C,C2*%
X171330000Y-56335000D03*
X171330000Y-57885000D03*
%TD*%
D13*
%TO.C,H3*%
X209430000Y-117665000D03*
X209430000Y-120205000D03*
X206890000Y-117665000D03*
X206890000Y-120205000D03*
X204350000Y-117665000D03*
D14*
X204350000Y-120205000D03*
%TD*%
D15*
%TO.C,J1*%
X212110000Y-103390000D03*
X212110000Y-104490000D03*
X212110000Y-105590000D03*
X212110000Y-106690000D03*
X212110000Y-107790000D03*
X212110000Y-108890000D03*
X212110000Y-109990000D03*
X212110000Y-111090000D03*
X212110000Y-112040000D03*
D16*
X222610000Y-112990000D03*
D17*
X216410000Y-112990000D03*
D18*
X226760000Y-112990000D03*
D17*
X212110000Y-101840000D03*
D19*
X227210000Y-99490000D03*
%TD*%
D20*
%TO.C,A1*%
X207690000Y-45680000D03*
D21*
X206890000Y-45680000D03*
D20*
X207690000Y-48220000D03*
D21*
X206890000Y-48220000D03*
D22*
X207690000Y-50760000D03*
D23*
X206890000Y-50760000D03*
D20*
X207690000Y-53300000D03*
D21*
X206890000Y-53300000D03*
D20*
X207690000Y-55840000D03*
D21*
X206890000Y-55840000D03*
D20*
X207690000Y-58380000D03*
D21*
X206890000Y-58380000D03*
D20*
X207690000Y-60920000D03*
D21*
X206890000Y-60920000D03*
D22*
X207690000Y-63460000D03*
D23*
X206890000Y-63460000D03*
D20*
X207690000Y-66000000D03*
D21*
X206890000Y-66000000D03*
D20*
X207690000Y-68540000D03*
D21*
X206890000Y-68540000D03*
D20*
X207690000Y-71080000D03*
D21*
X206890000Y-71080000D03*
D20*
X207690000Y-73620000D03*
D21*
X206890000Y-73620000D03*
D22*
X207690000Y-76160000D03*
D23*
X206890000Y-76160000D03*
D20*
X207690000Y-78700000D03*
D21*
X206890000Y-78700000D03*
D20*
X207690000Y-81240000D03*
D21*
X206890000Y-81240000D03*
D20*
X207690000Y-83780000D03*
D21*
X206890000Y-83780000D03*
D20*
X207690000Y-86320000D03*
D21*
X206890000Y-86320000D03*
D22*
X207690000Y-88860000D03*
D23*
X206890000Y-88860000D03*
D20*
X207690000Y-91400000D03*
D21*
X206890000Y-91400000D03*
D20*
X207690000Y-93940000D03*
D21*
X206890000Y-93940000D03*
X189110000Y-93940000D03*
D20*
X188310000Y-93940000D03*
D21*
X189110000Y-91400000D03*
D20*
X188310000Y-91400000D03*
D24*
X189110000Y-88860000D03*
D25*
X188310000Y-88860000D03*
D21*
X189110000Y-86320000D03*
D20*
X188310000Y-86320000D03*
D21*
X189110000Y-83780000D03*
D20*
X188310000Y-83780000D03*
D21*
X189110000Y-81240000D03*
D20*
X188310000Y-81240000D03*
D21*
X189110000Y-78700000D03*
D20*
X188310000Y-78700000D03*
D24*
X189110000Y-76160000D03*
D25*
X188310000Y-76160000D03*
D21*
X189110000Y-73620000D03*
D20*
X188310000Y-73620000D03*
D21*
X189110000Y-71080000D03*
D20*
X188310000Y-71080000D03*
D21*
X189110000Y-68540000D03*
D20*
X188310000Y-68540000D03*
D21*
X189110000Y-66000000D03*
D20*
X188310000Y-66000000D03*
D24*
X189110000Y-63460000D03*
D25*
X188310000Y-63460000D03*
D21*
X189110000Y-60920000D03*
D20*
X188310000Y-60920000D03*
D21*
X189110000Y-58380000D03*
D20*
X188310000Y-58380000D03*
D21*
X189110000Y-55840000D03*
D20*
X188310000Y-55840000D03*
D21*
X189110000Y-53300000D03*
D20*
X188310000Y-53300000D03*
D24*
X189110000Y-50760000D03*
D25*
X188310000Y-50760000D03*
D21*
X189110000Y-48220000D03*
D20*
X188310000Y-48220000D03*
D26*
X189110000Y-45680000D03*
D22*
X188310000Y-45680000D03*
D27*
X200725000Y-45810000D03*
D28*
X200425000Y-48840000D03*
X195575000Y-48840000D03*
D27*
X195275000Y-45810000D03*
%TD*%
D29*
%TO.C,H7*%
X115418447Y-64927059D03*
%TD*%
%TO.C,H8*%
X149418447Y-64988612D03*
%TD*%
%TO.C,H9*%
X115480000Y-99177059D03*
%TD*%
%TO.C,H10*%
X149480000Y-99238612D03*
%TD*%
%TO.C,H11*%
X115650883Y-49488972D03*
%TD*%
%TO.C,H12*%
X149150883Y-49488972D03*
%TD*%
%TO.C,H13*%
X115650883Y-112988972D03*
%TD*%
%TO.C,H14*%
X149150883Y-112988972D03*
%TD*%
D30*
%TO.C,SW1*%
X224660000Y-46970000D03*
X224660000Y-53970000D03*
D31*
X227210000Y-48220000D03*
X227210000Y-52720000D03*
%TD*%
D32*
%TO.C,SW2*%
X222400000Y-78600000D03*
X222400000Y-91500000D03*
D33*
X223200000Y-82550000D03*
X223200000Y-87550000D03*
X225700000Y-85050000D03*
X225700000Y-82550000D03*
D34*
X225700000Y-87550000D03*
%TD*%
D35*
%TO.C,U5*%
X180052500Y-55010000D03*
D36*
X180802500Y-56447500D03*
X180302500Y-56447500D03*
X179802500Y-56447500D03*
X179302500Y-56447500D03*
D37*
X178615000Y-55760000D03*
X178615000Y-55260000D03*
X178615000Y-54760000D03*
X178615000Y-54260000D03*
D36*
X179302500Y-53572500D03*
X179802500Y-53572500D03*
X180302500Y-53572500D03*
X180802500Y-53572500D03*
D37*
X181490000Y-54260000D03*
X181490000Y-54760000D03*
X181490000Y-55260000D03*
X181490000Y-55760000D03*
%TD*%
D12*
%TO.C,C8*%
X218320000Y-94435000D03*
X218320000Y-95985000D03*
%TD*%
D38*
%TO.C,RN2*%
X205990000Y-109110000D03*
D39*
X205990000Y-108310000D03*
X205990000Y-107510000D03*
D38*
X205990000Y-106710000D03*
X207790000Y-106710000D03*
D39*
X207790000Y-107510000D03*
X207790000Y-108310000D03*
D38*
X207790000Y-109110000D03*
%TD*%
D40*
%TO.C,C7*%
X214510000Y-93735000D03*
X214510000Y-96685000D03*
%TD*%
D41*
%TO.C,R5*%
X163770000Y-90510000D03*
X163770000Y-88860000D03*
%TD*%
D13*
%TO.C,H2*%
X161170000Y-85050000D03*
D14*
X163710000Y-85050000D03*
%TD*%
D42*
%TO.C,U1*%
X180220000Y-89520000D03*
X177680000Y-89520000D03*
X177680000Y-95820000D03*
X180220000Y-95820000D03*
%TD*%
D14*
%TO.C,H1*%
X180220000Y-85050000D03*
D13*
X177680000Y-85050000D03*
%TD*%
D41*
%TO.C,R2*%
X189110000Y-128230000D03*
X189110000Y-126580000D03*
%TD*%
%TO.C,R1*%
X191650000Y-128230000D03*
X191650000Y-126580000D03*
%TD*%
D43*
%TO.C,D3*%
X198000000Y-107910000D03*
X202000000Y-107910000D03*
%TD*%
D12*
%TO.C,C9*%
X130690000Y-122160000D03*
X130690000Y-120610000D03*
%TD*%
%TO.C,C10*%
X142120000Y-122160000D03*
X142120000Y-120610000D03*
%TD*%
D44*
%TO.C,D6*%
X198000000Y-121880000D03*
X198000000Y-125880000D03*
%TD*%
D45*
%TO.C,FB2*%
X176410000Y-53300000D03*
X174285000Y-53300000D03*
%TD*%
D43*
%TO.C,D5*%
X182505000Y-100290000D03*
X178505000Y-100290000D03*
%TD*%
D46*
%TO.C,D4*%
X224670000Y-63460000D03*
D47*
X224670000Y-62190000D03*
X224670000Y-60920000D03*
X224670000Y-59650000D03*
%TD*%
D48*
%TO.C,C1*%
X171330000Y-52525000D03*
X171330000Y-54075000D03*
%TD*%
D49*
%TO.C,R18*%
X175140000Y-107327500D03*
X175140000Y-105677500D03*
%TD*%
D50*
%TO.C,R4*%
X214510000Y-71080000D03*
X212860000Y-71080000D03*
%TD*%
D14*
%TO.C,J4*%
X178950000Y-119340000D03*
D13*
X176410000Y-119340000D03*
X173870000Y-119340000D03*
%TD*%
D51*
%TO.C,U6*%
X132845000Y-127282500D03*
X133495000Y-127282500D03*
X134145000Y-127282500D03*
X134795000Y-127282500D03*
X135445000Y-127282500D03*
X136095000Y-127282500D03*
X136745000Y-127282500D03*
X137395000Y-127282500D03*
X138045000Y-127282500D03*
X138695000Y-127282500D03*
X138695000Y-121557500D03*
X138045000Y-121557500D03*
X137395000Y-121557500D03*
X136745000Y-121557500D03*
X136095000Y-121557500D03*
X135445000Y-121557500D03*
X134795000Y-121557500D03*
X134145000Y-121557500D03*
X133495000Y-121557500D03*
X132845000Y-121557500D03*
%TD*%
%TO.C,U7*%
X143890000Y-127282500D03*
X144540000Y-127282500D03*
X145190000Y-127282500D03*
X145840000Y-127282500D03*
X146490000Y-127282500D03*
X147140000Y-127282500D03*
X147790000Y-127282500D03*
X148440000Y-127282500D03*
X149090000Y-127282500D03*
X149740000Y-127282500D03*
X149740000Y-121557500D03*
X149090000Y-121557500D03*
X148440000Y-121557500D03*
X147790000Y-121557500D03*
X147140000Y-121557500D03*
X146490000Y-121557500D03*
X145840000Y-121557500D03*
X145190000Y-121557500D03*
X144540000Y-121557500D03*
X143890000Y-121557500D03*
%TD*%
D52*
%TO.C,U8*%
X162440000Y-99020000D03*
D21*
X162440000Y-101560000D03*
X162440000Y-104100000D03*
X162440000Y-106640000D03*
X162440000Y-109180000D03*
X162440000Y-111720000D03*
X162440000Y-114260000D03*
X162440000Y-116800000D03*
X162440000Y-119340000D03*
X162440000Y-121880000D03*
X162440000Y-124420000D03*
X162440000Y-126960000D03*
X170060000Y-126960000D03*
X170060000Y-124420000D03*
X170060000Y-121880000D03*
X170060000Y-119340000D03*
X170060000Y-116800000D03*
X170060000Y-114260000D03*
X170060000Y-111720000D03*
X170060000Y-109180000D03*
X170060000Y-106640000D03*
X170060000Y-104100000D03*
X170060000Y-101560000D03*
X170060000Y-99020000D03*
%TD*%
D40*
%TO.C,C11*%
X182760000Y-108115000D03*
X182760000Y-105165000D03*
%TD*%
D49*
%TO.C,R17*%
X178950000Y-107327500D03*
X178950000Y-105677500D03*
%TD*%
D53*
%TO.C,J3*%
X203180000Y-136490000D03*
X200640000Y-136490000D03*
X198100000Y-136490000D03*
X195560000Y-136490000D03*
X193020000Y-136490000D03*
X190480000Y-136490000D03*
X187940000Y-136490000D03*
X185400000Y-136490000D03*
X182860000Y-136490000D03*
X180320000Y-136490000D03*
X177780000Y-136490000D03*
X175240000Y-136490000D03*
X172700000Y-136490000D03*
X170160000Y-136490000D03*
X167620000Y-136490000D03*
X165080000Y-136490000D03*
X162540000Y-136490000D03*
X160000000Y-136490000D03*
X157460000Y-136490000D03*
X154920000Y-136490000D03*
X152380000Y-136490000D03*
X149840000Y-136490000D03*
X147300000Y-136490000D03*
X144760000Y-136490000D03*
X142220000Y-136490000D03*
X139680000Y-136490000D03*
X137140000Y-136490000D03*
X134600000Y-136490000D03*
X132060000Y-136490000D03*
X129520000Y-136490000D03*
X126980000Y-136490000D03*
%TD*%
D50*
%TO.C,R7*%
X175140000Y-110450000D03*
X173490000Y-110450000D03*
%TD*%
D54*
%TO.C,R3*%
X196922500Y-111720000D03*
X193997500Y-111720000D03*
%TD*%
D55*
%TO.C,H5*%
X221145784Y-127803600D03*
X221848728Y-126106544D03*
X221848728Y-129500656D03*
X223545784Y-125403600D03*
D56*
X223545784Y-127803600D03*
D55*
X223545784Y-130203600D03*
X225242840Y-126106544D03*
X225242840Y-129500656D03*
X225945784Y-127803600D03*
%TD*%
D57*
%TO.C,R6*%
X173490000Y-101560000D03*
X175140000Y-101560000D03*
%TD*%
D58*
%TO.C,H6*%
X164980000Y-53300000D03*
D59*
X164980000Y-56800000D03*
%TD*%
D50*
%TO.C,R15*%
X175140000Y-126960000D03*
X173490000Y-126960000D03*
%TD*%
D57*
%TO.C,R16*%
X173490000Y-124420000D03*
X175140000Y-124420000D03*
%TD*%
D45*
%TO.C,FB1*%
X176410000Y-57110000D03*
X174285000Y-57110000D03*
%TD*%
D60*
%TO.C,C12*%
X173590000Y-99020000D03*
X175140000Y-99020000D03*
%TD*%
D55*
%TO.C,H4*%
X221123623Y-71273708D03*
X221826567Y-69576652D03*
X221826567Y-72970764D03*
X223523623Y-68873708D03*
D56*
X223523623Y-71273708D03*
D55*
X223523623Y-73673708D03*
X225220679Y-69576652D03*
X225220679Y-72970764D03*
X225923623Y-71273708D03*
%TD*%
D14*
%TO.C,J5*%
X178950000Y-115530000D03*
D13*
X176410000Y-115530000D03*
X173870000Y-115530000D03*
%TD*%
D38*
%TO.C,RN1*%
X215780000Y-62785000D03*
D39*
X215780000Y-61985000D03*
X215780000Y-61185000D03*
D38*
X215780000Y-60385000D03*
X213980000Y-60385000D03*
D39*
X213980000Y-61185000D03*
X213980000Y-61985000D03*
D38*
X213980000Y-62785000D03*
%TD*%
D61*
%TO.C,Super_Cap2*%
X186570000Y-118070000D03*
D59*
X191570000Y-118070000D03*
%TD*%
D48*
%TO.C,C6*%
X178950000Y-49490000D03*
X178950000Y-51040000D03*
%TD*%
D62*
%TO.C,Q1*%
X213560000Y-76765000D03*
X215460000Y-76765000D03*
X214510000Y-74890000D03*
%TD*%
D63*
%TO.C,C5*%
X181490000Y-48220000D03*
X181490000Y-51170000D03*
%TD*%
M02*
